HIERARCHY
ROOT Hips
{
	OFFSET 0.00000 0.00000 0.00000
	CHANNELS 6 Xposition Yposition Zposition Zrotation Yrotation Xrotation 
	JOINT LHipJoint
	{
		OFFSET 0 0 0
		CHANNELS 3 Zrotation Yrotation Xrotation
		JOINT LeftUpLeg
		{
			OFFSET 1.57338 -1.94743 0.52196
			CHANNELS 3 Zrotation Yrotation Xrotation
			JOINT LeftLeg
			{
				OFFSET 2.60333 -7.15259 0.00000
				CHANNELS 3 Zrotation Yrotation Xrotation
				JOINT LeftFoot
				{
					OFFSET 2.77855 -7.63400 0.00000
					CHANNELS 3 Zrotation Yrotation Xrotation
					JOINT LeftToeBase
					{
						OFFSET 0.19847 -0.54529 2.28466
						CHANNELS 3 Zrotation Yrotation Xrotation
						End Site
						{
							OFFSET 0.00000 -0.00000 1.17993
						}
					}
				}
			}
		}
	}
	JOINT RHipJoint
	{
		OFFSET 0 0 0
		CHANNELS 3 Zrotation Yrotation Xrotation
		JOINT RightUpLeg
		{
			OFFSET -1.61527 -1.94743 0.52196
			CHANNELS 3 Zrotation Yrotation Xrotation
			JOINT RightLeg
			{
				OFFSET -2.53829 -6.97390 0.00000
				CHANNELS 3 Zrotation Yrotation Xrotation
				JOINT RightFoot
				{
					OFFSET -2.80762 -7.71387 0.00000
					CHANNELS 3 Zrotation Yrotation Xrotation
					JOINT RightToeBase
					{
						OFFSET -0.30536 -0.83898 2.28801
						CHANNELS 3 Zrotation Yrotation Xrotation
						End Site
						{
							OFFSET -0.00000 -0.00000 1.21323
						}
					}
				}
			}
		}
	}
	JOINT LowerBack
	{
		OFFSET 0 0 0
		CHANNELS 3 Zrotation Yrotation Xrotation
		JOINT Spine
		{
			OFFSET -0.04381 1.99497 -0.19778
			CHANNELS 3 Zrotation Yrotation Xrotation
			JOINT Spine1
			{
				OFFSET -0.01959 2.01295 -0.04372
				CHANNELS 3 Zrotation Yrotation Xrotation
				JOINT Neck
				{
					OFFSET 0 0 0
					CHANNELS 3 Zrotation Yrotation Xrotation
					JOINT Neck1
					{
						OFFSET -0.05459 1.76913 0.09708
						CHANNELS 3 Zrotation Yrotation Xrotation
						JOINT Head
						{
							OFFSET 0.09461 1.77368 -0.11172
							CHANNELS 3 Zrotation Yrotation Xrotation
							End Site
							{
								OFFSET 0.03812 1.78157 -0.04834
							}
						}
					}
				}
				JOINT LeftShoulder
				{
					OFFSET 0 0 0
					CHANNELS 3 Zrotation Yrotation Xrotation
					JOINT LeftArm
					{
						OFFSET 3.50922 1.24034 -0.28866
						CHANNELS 3 Zrotation Yrotation Xrotation
						JOINT LeftForeArm
						{
							OFFSET 5.40188 -0.00000 0.00000
							CHANNELS 3 Zrotation Yrotation Xrotation
							JOINT LeftHand
							{
								OFFSET 3.68559 -0.00000 0.00000
								CHANNELS 3 Zrotation Yrotation Xrotation
								JOINT LeftFingerBase
								{
									OFFSET 0 0 0
									CHANNELS 3 Zrotation Yrotation Xrotation
									JOINT LeftHandIndex1
									{
										OFFSET 0.61753 -0.00000 0.00000
										CHANNELS 3 Zrotation Yrotation Xrotation
										End Site
										{
											OFFSET 0.49787 -0.00000 0.00000
										}
									}
								}
								JOINT LThumb
								{
									OFFSET 0 0 0
									CHANNELS 3 Zrotation Yrotation Xrotation
									End Site
									{
										OFFSET 0.50547 -0.00000 0.50547
									}
								}
							}
						}
					}
				}
				JOINT RightShoulder
				{
					OFFSET 0 0 0
					CHANNELS 3 Zrotation Yrotation Xrotation
					JOINT RightArm
					{
						OFFSET -2.95373 1.39649 -0.27346
						CHANNELS 3 Zrotation Yrotation Xrotation
						JOINT RightForeArm
						{
							OFFSET -6.10670 -0.00000 -0.00000
							CHANNELS 3 Zrotation Yrotation Xrotation
							JOINT RightHand
							{
								OFFSET -3.63052 -0.00000 0.00000
								CHANNELS 3 Zrotation Yrotation Xrotation
								JOINT RightFingerBase
								{
									OFFSET 0 0 0
									CHANNELS 3 Zrotation Yrotation Xrotation
									JOINT RightHandIndex1
									{
										OFFSET -0.58385 -0.00000 0.00000
										CHANNELS 3 Zrotation Yrotation Xrotation
										End Site
										{
											OFFSET -0.47071 -0.00000 0.00000
										}
									}
								}
								JOINT RThumb
								{
									OFFSET 0 0 0
									CHANNELS 3 Zrotation Yrotation Xrotation
									End Site
									{
										OFFSET -0.47790 -0.00000 0.47790
									}
								}
							}
						}
					}
				}
			}
		}
	}
}
MOTION
Frames: 10
Frame Time: .0083333
-0.2822 17.9810 -2.4445 0.1192 36.4922 0.5570 0.0000 0.0000 0.0000 -1.6608 -24.4728 -15.6127 1.3247 7.2889 20.5742 -0.1267 -6.8729 -0.4205 0.6921 -5.3183 -14.8188 0.0000 0.0000 0.0000 15.2619 3.8685 14.1721 -0.7173 -5.4124 15.0886 -2.7897 -18.4691 -42.1542 -0.0514 -1.4624 4.0222 6.0222 13.8725 7.6700 -3.1165 18.9500 -0.7449 -7.6719 9.4120 -1.9718 -8.0549 -1.9460 -13.2035 7.4181 -2.0745 10.2947 3.4802 -0.8012 5.4241 -0.0000 0.0000 0.0000 -54.9445 23.3813 -22.3155 79.3593 -59.5678 -50.7983 -0.0000 -0.0000 1.9208 36.4530 4.9172 3.6230 -7.1250 0.0000 -0.0000 8.2025 35.9821 -1.8336 -0.0000 0.0000 0.0000 59.9778 34.1911 73.9781 -77.8786 59.4375 -49.5224 0.0000 0.0000 17.4595 -26.7110 11.3123 -5.6371 7.1250 -0.0000 -0.0000 0.2953 -17.3573 0.1938
-0.2748 17.9882 -2.4516 0.1153 35.7723 0.5350 0.0000 0.0000 0.0000 -1.7031 -24.1949 -15.3214 1.3126 7.2570 20.4789 -0.1065 -6.4792 -0.7636 0.7436 -5.5083 -15.3643 0.0000 0.0000 0.0000 15.0975 4.2012 14.1078 -0.7174 -5.4125 15.0890 -2.7047 -18.3965 -41.7227 -0.0442 -1.3567 3.7308 6.1181 13.7052 7.6284 -3.0500 18.7341 -0.7359 -7.6398 9.3020 -1.9686 -8.0298 -1.9865 -13.4843 7.2134 -2.1088 10.8589 3.4126 -0.8275 5.6478 0.0000 -0.0000 0.0000 -54.7820 23.3323 -22.5347 79.1180 -59.5478 -50.5902 -0.0000 -0.0000 1.8857 36.5661 4.7948 3.5478 -7.1250 0.0000 -0.0000 8.2882 35.8381 -1.8824 0.0000 -0.0000 0.0000 59.7587 33.7648 73.4385 -77.1525 59.3670 -48.8974 0.0000 0.0000 17.3782 -26.6505 11.4995 -5.7135 7.1250 -0.0000 -0.0000 0.3505 -17.1564 0.2315
-0.2665 17.9959 -2.4585 0.2361 35.0119 0.5762 0.0000 0.0000 0.0000 -1.8598 -23.9564 -14.9899 1.3062 7.2400 20.4284 -0.0838 -6.0116 -1.1537 0.7331 -5.4701 -15.2543 0.0000 0.0000 0.0000 14.7953 4.5139 14.0632 -0.7151 -5.4041 15.0649 -2.6002 -18.3124 -41.1880 -0.0377 -1.2534 3.4464 6.0439 13.4392 7.5073 -2.8523 18.3655 -0.5759 -7.3612 9.1236 -1.8832 -8.6590 -1.9342 -13.7072 7.3748 -1.9261 10.9845 3.5860 -0.7506 5.7176 -0.0000 -0.0000 0.0000 -55.1978 23.3536 -23.0999 79.1772 -59.5527 -50.6413 -0.0000 -0.0000 1.6746 36.7382 5.0283 3.7431 -7.1250 0.0000 -0.0000 8.4512 36.1350 -1.8583 -0.0000 -0.0000 0.0000 59.2087 33.6644 73.0640 -76.5280 59.3030 -48.3602 0.0000 0.0000 17.2335 -26.5048 11.5556 -5.7047 7.1250 -0.0000 -0.0000 0.4558 -17.1101 0.3016
-0.2588 18.0031 -2.4650 0.3194 34.2678 0.6065 0.0000 0.0000 0.0000 -1.9778 -23.6838 -14.7113 1.3062 7.2398 20.4279 -0.0650 -5.6516 -1.5552 0.7525 -5.5406 -15.4571 0.0000 0.0000 0.0000 14.5949 4.9626 14.0855 -0.7119 -5.3924 15.0312 -2.5388 -18.2377 -40.8496 -0.0334 -1.1801 3.2446 6.0481 13.1100 7.4153 -2.7050 17.9216 -0.4619 -7.1819 8.9045 -1.8309 -9.4055 -1.8070 -13.6303 7.7950 -1.6621 10.7182 3.8655 -0.6233 5.6087 -0.0000 0.0000 0.0000 -55.4254 23.3961 -23.6999 79.0207 -59.5396 -50.5064 -0.0000 -0.0000 1.4515 36.7794 5.2798 3.9351 -7.1250 0.0000 -0.0000 8.5057 36.4470 -1.8051 -0.0000 0.0000 0.0000 58.7527 33.6660 72.7443 -75.9305 59.2387 -47.8466 0.0000 0.0000 17.1794 -26.3073 11.7131 -5.7314 7.1250 -0.0000 -0.0000 0.6041 -16.9577 0.4017
-0.2488 18.0077 -2.4726 0.1724 33.5706 0.4607 0.0000 0.0000 0.0000 -1.9083 -23.3750 -14.3954 1.3006 7.2251 20.3839 -0.0501 -5.3324 -1.8510 0.7336 -5.4720 -15.2597 0.0000 0.0000 0.0000 14.5970 5.3374 14.1207 -0.7119 -5.3921 15.0304 -2.4726 -18.1771 -40.4972 -0.0288 -1.0947 3.0094 6.3890 12.8923 7.4988 -2.7413 17.6672 -0.5468 -7.4088 8.7688 -1.8948 -9.4462 -1.7912 -13.4624 7.9699 -1.6700 10.6976 3.9276 -0.6188 5.5766 0.0000 -0.0000 0.0000 -54.9427 23.2694 -23.8273 78.7849 -59.5194 -50.3031 -0.0000 -0.0000 1.3161 36.8168 5.2041 3.8843 -7.1250 0.0000 -0.0000 8.5314 36.3560 -1.8298 0.0000 -0.0000 0.0000 58.5982 33.2122 72.0460 -75.3140 59.1692 -47.3171 0.0000 0.0000 17.1123 -25.7521 11.5083 -5.4973 7.1250 -0.0000 -0.0000 0.9777 -17.2429 0.6441
-0.2394 18.0133 -2.4822 0.0377 32.8233 0.3238 0.0000 0.0000 0.0000 -1.8473 -23.0785 -14.0347 1.2904 7.1977 20.3023 -0.0330 -4.9135 -2.1601 0.6881 -5.3032 -14.7753 0.0000 0.0000 0.0000 14.5545 5.7120 14.1053 -0.7114 -5.3904 15.0255 -2.3753 -18.1535 -40.0264 -0.0217 -0.9507 2.6132 6.8056 12.7947 7.7833 -2.9394 17.5942 -0.7823 -7.9050 8.7111 -2.1256 -9.0902 -1.8894 -13.2769 8.0367 -1.9021 10.8657 3.8718 -0.7153 5.6164 -0.0000 0.0000 0.0000 -53.9778 22.9900 -23.4774 78.5243 -59.4965 -50.0785 -0.0000 -0.0000 1.2340 36.9417 5.2797 3.9582 -7.1250 0.0000 -0.0000 8.6431 36.4567 -1.8327 -0.0000 0.0000 0.0000 58.5923 32.4164 71.0181 -74.6356 59.0890 -46.7348 0.0000 0.0000 17.0740 -25.3366 10.8112 -5.0753 7.1250 -0.0000 -0.0000 1.2275 -18.0510 0.7869
-0.2337 18.0234 -2.4864 0.4541 32.0288 0.6104 0.0000 0.0000 0.0000 -2.2473 -22.8429 -13.7476 1.2771 7.1620 20.1962 -0.0144 -4.4163 -2.5126 0.6614 -5.2014 -14.4838 0.0000 0.0000 0.0000 14.0295 6.2109 14.0156 -0.7101 -5.3857 15.0121 -2.2946 -18.1513 -39.6447 -0.0133 -0.7446 2.0463 6.4570 12.5876 7.6407 -3.2102 17.2770 -0.9581 -8.0056 8.5449 -2.3036 -8.2983 -1.7472 -13.0222 7.8837 -1.8604 10.9421 3.6958 -0.6764 5.5847 0.0000 -0.0000 0.0000 -53.1113 22.9576 -23.5808 78.0111 -59.4499 -49.6365 -0.0000 -0.0000 1.1844 36.9289 5.1653 3.8712 -7.1250 0.0000 -0.0000 8.6231 36.3150 -1.8585 0.0000 -0.0000 0.0000 58.8708 31.9883 70.4525 -73.8972 58.9972 -46.1015 0.0000 0.0000 17.3206 -25.4925 10.7075 -5.0626 7.1250 -0.0000 -0.0000 1.1120 -18.1497 0.7104
-0.2222 18.0370 -2.4850 0.8897 31.0274 0.9621 0.0000 0.0000 0.0000 -2.6778 -22.3776 -13.4443 1.2543 7.1000 20.0121 0.0032 -3.9382 -2.8924 0.6893 -5.3078 -14.7886 0.0000 0.0000 0.0000 13.4257 6.7947 13.8054 -0.7174 -5.4128 15.0897 -2.2272 -18.0825 -39.2663 -0.0061 -0.5058 1.3898 6.0642 12.6034 7.1578 -3.3297 17.2347 -0.8930 -7.8059 8.5464 -2.0543 -8.0482 -1.8114 -12.9243 7.7778 -1.9857 10.9101 3.6089 -0.7362 5.5654 -0.0000 0.0000 0.0000 -52.5638 22.4041 -23.2373 78.0237 -59.4510 -49.6473 -0.0000 -0.0000 0.5273 37.0988 6.1857 4.6586 -7.1250 0.0000 -0.0000 8.8487 37.5843 -1.6305 -0.0000 0.0000 0.0000 58.5376 31.5019 69.2649 -73.1919 58.9051 -45.4973 0.0000 0.0000 17.6239 -25.5247 11.0163 -5.2135 7.1250 -0.0000 -0.0000 1.1071 -17.8072 0.7156
-0.2132 18.0480 -2.4884 0.9359 29.9533 0.9161 0.0000 0.0000 0.0000 -2.8014 -21.7842 -12.9412 1.2249 7.0196 19.7735 0.0192 -3.4305 -3.2449 0.7041 -5.3631 -14.9472 0.0000 0.0000 0.0000 13.1864 7.3349 13.6906 -0.7287 -5.4542 15.2086 -2.1247 -18.0409 -38.7358 -0.0012 -0.2263 0.6219 6.0762 12.5337 7.0688 -3.2535 17.1377 -0.8127 -7.7019 8.5039 -1.9579 -8.2118 -1.8873 -12.9041 7.7285 -2.0538 10.9118 3.6141 -0.7808 5.5694 -0.0000 0.0000 0.0000 -52.2841 22.0595 -23.1447 78.0126 -59.4500 -49.6378 -0.0000 -0.0000 0.1493 37.3255 6.4868 4.9235 -7.1250 0.0000 -0.0000 9.0677 37.9731 -1.5844 -0.0000 0.0000 0.0000 57.9903 31.1820 68.2273 -72.4888 58.8090 -44.8955 0.0000 0.0000 17.6703 -25.5275 11.1542 -5.2783 7.1250 -0.0000 -0.0000 1.1132 -17.6554 0.7233
-0.2167 18.0523 -2.4965 1.0407 29.2420 0.7481 0.0000 0.0000 0.0000 -3.0097 -21.5000 -12.4084 1.2046 6.9632 19.6063 0.0323 -2.9729 -3.5578 0.7232 -5.4342 -15.1512 0.0000 0.0000 0.0000 12.9825 7.6391 13.7543 -0.7338 -5.4729 15.2624 -2.0324 -18.0633 -38.3020 -0.0002 -0.0820 0.2252 5.9152 12.0961 7.3272 -2.9693 16.5535 -0.6944 -7.4001 8.1983 -2.2008 -8.9266 -1.7950 -13.0793 7.7758 -1.7963 11.1066 3.7723 -0.6806 5.6450 0.0000 0.0000 0.0000 -52.6116 22.2420 -23.6683 78.0120 -59.4500 -49.6373 -0.0000 -0.0000 0.0653 37.5131 6.1877 4.7302 -7.1250 0.0000 -0.0000 9.2049 37.6175 -1.6899 0.0000 0.0000 0.0000 57.2557 31.3124 67.7895 -71.8767 58.7218 -44.3721 0.0000 0.0000 17.5538 -25.5549 11.1988 -5.3055 7.1250 -0.0000 -0.0000 1.0966 -17.6036 0.7138
